<?xml version="1.0" encoding="UTF-8"?>
<!-- Generated by Pixelmator Pro 4.2 -->
<svg width="1200" height="800" viewBox="0 0 1200 800" xmlns="http://www.w3.org/2000/svg">
    <linearGradient id="linearGradient1" x1="0" y1="0" x2="1200" y2="800" gradientUnits="userSpaceOnUse">
        <stop offset="1e-05" stop-color="#092338" stop-opacity="1"/>
        <stop offset="1" stop-color="#145966" stop-opacity="1"/>
    </linearGradient>
    <path id="Path" fill="url(#linearGradient1)" stroke="none" d="M 0 0 L 1200 0 L 1200 800 L 0 800 Z"/>
    <path id="path1" fill="#16a394" fill-opacity="0.25" stroke="none" d="M 1260 120 C 1260 263.593994 1143.593994 380 1000 380 C 856.405945 380 740 263.593994 740 120 C 740 -23.594055 856.405945 -140 1000 -140 C 1143.593994 -140 1260 -23.594055 1260 120 Z"/>
    <path id="path2" fill="#f8fbfb" stroke="none" d="M 138 125 L 1062 125 C 1077.463989 125 1090 137.536011 1090 153 L 1090 647 C 1090 662.463989 1077.463989 675 1062 675 L 138 675 C 122.536026 675 110 662.463989 110 647 L 110 153 C 110 137.536011 122.536026 125 138 125 Z"/>
    <path id="path3" fill="#dce6e9" stroke="none" d="M 138 125 L 1062 125 C 1077.463989 125 1090 137.536011 1090 153 L 1090 167 C 1090 182.463989 1077.463989 195 1062 195 L 138 195 C 122.536026 195 110 182.463989 110 167 L 110 153 C 110 137.536011 122.536026 125 138 125 Z"/>
    <path id="path4" fill="#ff8b6a" stroke="none" d="M 165 160 C 165 165.522827 160.522842 170 155 170 C 149.477158 170 145 165.522827 145 160 C 145 154.477173 149.477158 150 155 150 C 160.522842 150 165 154.477173 165 160 Z"/>
    <path id="path5" fill="#ffd166" stroke="none" d="M 195 160 C 195 165.522827 190.522842 170 185 170 C 179.477158 170 175 165.522827 175 160 C 175 154.477173 179.477158 150 185 150 C 190.522842 150 195 154.477173 195 160 Z"/>
    <path id="path6" fill="#16a394" stroke="none" d="M 225 160 C 225 165.522827 220.522842 170 215 170 C 209.477158 170 205 165.522827 205 160 C 205 154.477173 209.477158 150 215 150 C 220.522842 150 225 154.477173 225 160 Z"/>
    <g id="Group">
        <text id="def" xml:space="preserve" x="166" y="260" font-family="Helvetica" font-size="24" fill="#087b73">def</text>
        <text id="testcreatekitwithvalidname" xml:space="preserve" x="226" y="260" font-family="Helvetica" font-size="24" fill="#183042">test_create_kit_with_valid_name():</text>
        <text id="response--createkitQA-Portfolio" xml:space="preserve" x="206" y="310" font-family="Helvetica" font-size="24" fill="#5c6c78">response = create_kit("QA Portfolio")</text>
        <text id="assert-responsestatuscode--201" xml:space="preserve" x="206" y="360" font-family="Helvetica" font-size="24" fill="#5c6c78">assert response.status_code == 201</text>
        <text id="text1" xml:space="preserve" x="166" y="445" font-family="Helvetica" font-size="24" fill="#087b73">def</text>
        <text id="testnameoverlimit" xml:space="preserve" x="226" y="445" font-family="Helvetica" font-size="24" fill="#183042">test_name_over_limit():</text>
        <text id="assert-responsestatuscode--400" xml:space="preserve" x="206" y="495" font-family="Helvetica" font-size="24" fill="#5c6c78">assert response.status_code == 400</text>
    </g>
    <path id="path7" fill="#c9f3e8" stroke="none" d="M 193 565 L 417 565 C 432.463959 565 445 577.312195 445 592.5 L 445 592.5 C 445 607.687805 432.463959 620 417 620 L 193 620 C 177.536026 620 165 607.687805 165 592.5 L 165 592.5 C 165 577.312195 177.536026 565 193 565 Z"/>
</svg>
