<?xml version="1.0" encoding="UTF-8"?>
<svg id="Layer_1" xmlns="http://www.w3.org/2000/svg" xmlns:xlink="http://www.w3.org/1999/xlink" version="1.1" viewBox="0 0 1300 960">
  <!-- Generator: Adobe Illustrator 30.5.1, SVG Export Plug-In . SVG Version: 2.1.4 Build 3)  -->
  <defs>
    <style>
      .st0 {
        fill: #dce6e9;
      }

      .st1 {
        fill: #081b2c;
        font-size: 21px;
      }

      .st1, .st2, .st3, .st4 {
        isolation: isolate;
      }

      .st1, .st3, .st4 {
        font-family: Arial-BoldMT, Arial;
        font-weight: 700;
      }

      .st5 {
        fill: #c9f3e8;
      }

      .st6 {
        fill: url(#linear-gradient);
      }

      .st2 {
        fill: #183042;
        font-family: ArialMT, Arial;
        font-size: 17px;
      }

      .st7 {
        fill: #061827;
        stroke: #c9f3e8;
        stroke-width: 4px;
      }

      .st8 {
        fill: #f8fbfb;
      }

      .st3 {
        font-size: 20px;
      }

      .st3, .st4 {
        fill: #087b73;
      }

      .st9 {
        fill: #ff8b6a;
        fill-opacity: .1;
      }

      .st4 {
        font-size: 18px;
      }
    </style>
    <linearGradient id="linear-gradient" x1="303.8" y1="706.1" x2="304.8" y2="705.1" gradientTransform="translate(-364496 564894) scale(1200 -800)" gradientUnits="userSpaceOnUse">
      <stop offset="0" stop-color="#102b40"/>
      <stop offset="1" stop-color="#081b2c"/>
    </linearGradient>
  </defs>
  <rect class="st6" x="100" width="1200" height="800"/>
  <circle class="st9" cx="280" cy="680" r="280"/>
  <g>
    <rect class="st8" x="220" y="120" width="460" height="300" rx="28" ry="28"/>
    <path class="st0" d="M274,165h352c7.7,0,14,6.3,14,14h0c0,7.7-6.3,14-14,14h-352c-7.7,0-14-6.3-14-14h0c0-7.7,6.3-14,14-14Z"/>
    <path class="st5" d="M269,225h257c5,0,9,4,9,9h0c0,5-4,9-9,9h-257c-5,0-9-4-9-9h0c0-5,4-9,9-9Z"/>
    <path class="st0" d="M269,270h312c5,0,9,4,9,9h0c0,5-4,9-9,9h-312c-5,0-9-4-9-9h0c0-5,4-9,9-9Z"/>
    <path class="st0" d="M269,315h202c5,0,9,4,9,9h0c0,5-4,9-9,9h-202c-5,0-9-4-9-9h0c0-5,4-9,9-9Z"/>
    <text class="st3" transform="translate(260 375)"><tspan x="0" y="0">Postman / evidencia web</tspan></text>
    <rect class="st7" x="780" y="175" width="310" height="500" rx="44" ry="44"/>
    <rect class="st8" x="805" y="220" width="260" height="385" rx="18" ry="18"/>
    <circle class="st5" cx="935" cy="640" r="17"/>
    <path class="st5" d="M857,265h156c6.6,0,12,5.4,12,12h0c0,6.6-5.4,12-12,12h-156c-6.6,0-12-5.4-12-12h0c0-6.6,5.4-12,12-12Z"/>
    <rect class="st0" x="845" y="320" width="180" height="90" rx="16" ry="16"/>
    <rect class="st0" x="845" y="435" width="180" height="90" rx="16" ry="16"/>
    <text class="st4" transform="translate(878.5 570)"><tspan x="0" y="0">Prueba móvil</tspan></text>
    <rect class="st5" x="255" y="525" width="420" height="110" rx="20" ry="20"/>
    <text class="st1" transform="translate(367 570)"><tspan x="0" y="0">Capturas sugeridas</tspan></text>
    <text class="st2" transform="translate(343.1 605)"><tspan x="0" y="0">Postman · JIRA ·</tspan></text>
  </g>
</svg>